<svg xmlns="http://www.w3.org/2000/svg" viewBox="0 0 600 227.03"><path d="M38.72,19.55q15.78,2.1,31.57,3.27c31.16,2.2,47.49,19.49,47.49,46.3,0,26.53-16.33,44.9-47.49,42.7q-15.8-1.18-31.57-3.27ZM70.29,95.77c20.55,1.47,29.8-9.71,29.8-26.92S90.84,40.49,70.29,39q-7.08-.54-14.15-1.24V94.52Q63.21,95.24,70.29,95.77Z" fill="#fff"/><path d="M128.94,24.57q8.72-.11,17.42-.38v89q-8.72.28-17.42.38Z" fill="#fff"/><path d="M157.52,68.27c0-26.68,19.59-47,47.35-49.32,21.78-1.82,38.52,8.39,44.78,25.86q-9.66,1-19.33,1.93c-4.76-8.12-14-12.55-25.45-11.6-17.69,1.46-29.66,14.78-29.66,32.21s12,29.54,29.66,28.08c13.89-1.15,24.09-8.55,28.45-21.09-11.3,1.1-22.59,2.13-33.89,3V61.85c17.56-1.39,35.11-3.09,52.67-4.91v8.3c-2,24.54-21.1,44.06-47.23,46.24C177.11,113.8,157.52,94.93,157.52,68.27Z" fill="#fff"/><path d="M265.16,14.88,282.58,13v89l-17.42,1.87Z" fill="#fff"/><path d="M322,25q-13.26,1.35-26.54,2.79V11.62c23.5-2.52,47-5,70.5-6.87V20.94Q352.73,22,339.46,23.3V96.1q-8.71.84-17.42,1.73Z" fill="#fff"/><path d="M373.89,41c0-23.76,13.61-39.85,38.78-41s39.06,14.12,39.06,37.88V90.05q-8.72,0-17.42.12V63.5c-14.47.25-28.94.88-43.41,1.78V92q-8.5.53-17,1.17Zm60.42,6.7V38.05c0-14.27-7.08-22.4-21.77-21.8S390.9,25.57,390.9,39.84V49.5C405.37,48.6,419.84,48,434.31,47.71Z" fill="#fff"/><path d="M465.2,1.24q8.71.2,17.42.63V74.81c15.51.78,31,2.12,46.54,4.18V95a593.17,593.17,0,0,0-64-4.8Z" fill="#fff"/><path d="M0,126.24c14.2,3.06,28.4,5.43,42.6,7.22,16.87,2.07,25.72,12.24,25.72,25.75,0,9-4.22,15.62-11.57,18.57v.27c9.8,4.1,15.65,12.62,15.65,23.25,0,13.83-9,23.6-26.27,21.59-15.37-1.83-30.75-4.34-46.13-7.65Zm40.42,43c7.21.93,10.61-3.09,10.61-8.66,0-5.73-2.72-10.2-10.75-11.23q-11.43-1.48-22.86-3.5v19.87Q28.92,167.75,40.42,169.24Zm2.72,37.23c8.17,1,11.43-3.48,11.43-9.31,0-6-4.08-11.15-11.29-12C34.66,184,26,182.76,17.42,181.23v21.36Q30.28,204.87,43.14,206.47Z" fill="#fff"/><path d="M82.33,137q8.72.5,17.42.73v72.94c15.51.44,31,.35,46.54-.14V226.6c-21.32.67-42.64.6-64-.58Z" fill="#fff"/><path d="M159,137.11c21.86-1,43.73-2.68,65.59-4.73v16.2c-16.06,1.5-32.12,2.82-48.17,3.8v19.87c13.42-.82,26.85-1.88,40.28-3.08v15.51c-13.43,1.2-26.86,2.26-40.28,3.08v21.37c16-1,32.11-2.3,48.17-3.8v16c-21.86,2.05-43.73,3.75-65.59,4.73Z" fill="#fff"/><path d="M237.87,166.48c0-22.86,13.48-38.47,37.84-41.1s37.83,10.25,37.83,33.11v53.62q-8.71.91-17.42,1.85V160.34c0-13.2-6.81-20.23-20.41-18.76s-20.42,9.92-20.42,23.12v53.62q-8.7.92-17.42,1.78Z" fill="#fff"/><path d="M327,121.73q15.78-1.59,31.57-3c31.16-2.65,47.49,14.62,47.49,41.25s-16.33,45.1-47.49,47.75q-15.78,1.35-31.57,3Zm31.57,70c20.55-1.74,29.8-13.39,29.8-30.69s-9.25-27.8-29.8-26.05q-7.08.6-14.15,1.26V193Q351.5,192.32,358.58,191.71Z" fill="#fff"/><path d="M417.1,115.05c21.86-.81,43.72-.86,65.59.23v16.19c-16.06-.8-32.12-1-48.18-.71v19.87c13.43-.23,26.86-.14,40.29.37v15.51q-20.15-.75-40.29-.36v21.36c16.06-.28,32.12-.09,48.18.71v16.06c-21.87-1.09-43.73-1-65.59-.23Z" fill="#fff"/><path d="M495.34,116c12.43.88,24.86,2.15,37.29,3.88,22.59,3.24,32.52,18.1,32.53,35,0,14-6.67,22.21-18.65,24.13q10.95,17.82,21.91,36.17-10.33-2.24-20.68-4-9.47-16.63-18.92-32.92-8-1.07-16.06-1.87v30.08q-8.7-.89-17.42-1.5Zm37.56,46.65c11,1.57,14.7-3.42,14.7-11.06s-3.68-13.91-14.7-15.48q-10.06-1.41-20.14-2.42v26.54Q522.84,161.29,532.9,162.69Z" fill="#fff"/><path d="M599.73,143a1.71,1.71,0,0,0-2.35-.51,11,11,0,0,1-6,1.76,10.7,10.7,0,0,1-2.4-.27,14.54,14.54,0,0,0,3-2.3,14.34,14.34,0,0,0,3.9-7.15,1.7,1.7,0,0,0-3.32-.72,11.09,11.09,0,0,1-3,5.47,11.39,11.39,0,0,1-1.89,1.51,14.43,14.43,0,0,0-1.8-11.58,1.7,1.7,0,1,0-2.85,1.84,11,11,0,0,1,1.75,6,11.4,11.4,0,0,1-.26,2.41,14.42,14.42,0,0,0-9.46-6.92,1.7,1.7,0,0,0-.72,3.32,11,11,0,0,1,5.47,3,11.45,11.45,0,0,1,1.52,1.89,14.49,14.49,0,0,0-11.59,1.79,1.7,1.7,0,1,0,1.84,2.86,11,11,0,0,1,6-1.76,10.7,10.7,0,0,1,2.4.27,14.42,14.42,0,0,0-6.92,9.46,1.71,1.71,0,0,0,1.3,2,2.28,2.28,0,0,0,.36,0,1.69,1.69,0,0,0,1.66-1.34,11,11,0,0,1,3-5.46,10.59,10.59,0,0,1,1.89-1.52,14.36,14.36,0,0,0,1.79,11.59,1.69,1.69,0,0,0,1.43.77,1.66,1.66,0,0,0,.92-.27,1.7,1.7,0,0,0,.5-2.35,11,11,0,0,1-1.75-6,11.4,11.4,0,0,1,.26-2.41,14.08,14.08,0,0,0,2.31,3,14.43,14.43,0,0,0,7.15,3.91,2.19,2.19,0,0,0,.36,0,1.7,1.7,0,0,0,.36-3.36,10.94,10.94,0,0,1-5.47-3,11.39,11.39,0,0,1-1.51-1.89,14.34,14.34,0,0,0,11.58-1.79A1.7,1.7,0,0,0,599.73,143Z" fill="#ee3174"/></svg>
